<svg xmlns="http://www.w3.org/2000/svg" viewBox="0 0 249.93 298.1"><defs><style>.cls-1,.cls-2,.cls-3{fill:#070308;}.cls-2,.cls-3{stroke:#212021;}.cls-2,.cls-3,.cls-4{stroke-miterlimit:10;}.cls-2{stroke-width:5px;}.cls-3{stroke-width:4px;}.cls-4{fill:#fff;stroke:#040006;}</style></defs><title>Ativo 2</title><g id="Camada_2" data-name="Camada 2"><g id="Camada_1-2" data-name="Camada 1"><path class="cls-1" d="M81.54,224.74l.16,0c-3.76,21.32-3.64,46.18,7,69.89,1.9,4.25,7.05,4.74,9.48.87a39.8,39.8,0,0,0,6.34-21.12h45.21A39.8,39.8,0,0,0,156,295.47c2.43,3.88,7.57,3.39,9.48-.87,10.6-23.7,10.72-48.52,7-69.85l.28.06a351,351,0,0,1-7.18-71.7,343.76,343.76,0,0,1,9.62-82.4,87.92,87.92,0,0,1-10.33-5.86,103,103,0,0,1-27.83-27,11.88,11.88,0,0,0-19.85,0A102.91,102.91,0,0,1,89.33,64.83a88.17,88.17,0,0,1-9.71,5.57A344.5,344.5,0,0,1,89,151.77,350.19,350.19,0,0,1,81.54,224.74Z"/><path class="cls-2" d="M241,77.1a169.7,169.7,0,0,1-27.67-23.29A173.47,173.47,0,0,1,180.84,7.17c-2.8-6-10.6-6.28-12.58-.45C159.59,32.15,137.88,59,107.1,82l65.54,139.83A78.56,78.56,0,0,1,213,195.43c6.32-1.64,6.9-4.23,5.33-9.43-5.72-18.86-3-45.9,11.61-69.87A98.16,98.16,0,0,1,244.07,98C249.62,92.47,248.11,81.85,241,77.1Z"/><path class="cls-3" d="M7.06,90.31a186.94,186.94,0,0,0,23.9-28A200.24,200.24,0,0,0,57.5,9.85c2.13-6.53,9.36-8,11.67-2.44,10.09,24.43,32.43,48.27,62.91,66.65L82.2,226.26c-12.55-13.11-27.28-19-39.69-20.36-6-.67-6.76-3.2-5.71-8.72,3.82-20-.82-47-16.36-69A87.19,87.19,0,0,0,5.87,112C.26,107.27.82,96.25,7.06,90.31Z"/><path class="cls-4" d="M130.14,253a1.24,1.24,0,0,0,1.26-1c.73-4.13,4.77-7.3,9.66-7.3s8.93,3.17,9.66,7.3a1.24,1.24,0,0,0,1.26,1h.4a1.18,1.18,0,0,0,1.27-1.22c-.69-5.5-6-9.78-12.39-9.78s-11.7,4.28-12.39,9.78a1.18,1.18,0,0,0,1.27,1.22Z"/><path class="cls-4" d="M100.14,253a1.24,1.24,0,0,0,1.26-1c.73-4.13,4.77-7.3,9.66-7.3s8.93,3.17,9.66,7.3a1.24,1.24,0,0,0,1.26,1h.4a1.18,1.18,0,0,0,1.27-1.22c-.69-5.5-6-9.78-12.39-9.78s-11.7,4.28-12.39,9.78a1.18,1.18,0,0,0,1.27,1.22Z"/></g></g></svg>