<svg xmlns="http://www.w3.org/2000/svg" viewBox="0 0 347.67 265.57"><defs><style>.cls-1{fill:#070308;}.cls-2,.cls-4{fill:#fff;}.cls-2,.cls-3{stroke:#040006;}.cls-2,.cls-3,.cls-4{stroke-miterlimit:10;}.cls-3{fill:#050007;}.cls-4{stroke:#fff;stroke-width:0.25px;}.cls-5{fill:#222;}</style></defs><title>Ativo 1</title><g id="Camada_2" data-name="Camada 2"><g id="Camada_1-2" data-name="Camada 1"><path class="cls-1" d="M345.64,125.2a169.7,169.7,0,0,1-15.17-32.83,173.47,173.47,0,0,1-9.63-56c0-6.62-6.93-10.19-11.2-5.74-19.15,19.88-51.42,35.32-90.41,42.8,3.76-21.32,3.64-46.18-7-69.89-1.9-4.25-7.05-4.74-9.48-.87a39.8,39.8,0,0,0-6.34,21.12H151.22a39.8,39.8,0,0,0-6.33-21.12c-2.43-3.88-7.57-3.39-9.48.87-10.6,23.7-10.72,48.52-7,69.85-39-7.48-71.27-22.9-90.41-42.78-4.27-4.43-11.2-.86-11.2,5.76a173.22,173.22,0,0,1-9.63,56A169.45,169.45,0,0,1,2,125.19c-4.43,7.31-1.28,17.58,6.1,20.27a97.84,97.84,0,0,1,20.45,10.4C52,171.34,65.92,194.69,68.74,214.21c.78,5.38,2.41,7.45,8.83,6.27,16-3,37.63-1,58.48,12.79a103,103,0,0,1,27.83,27,11.88,11.88,0,0,0,19.85,0,102.91,102.91,0,0,1,27.87-26.94c20.85-13.77,42.52-15.78,58.5-12.8,6.42,1.2,8-.9,8.83-6.28,2.82-19.51,16.72-42.86,40.16-58.34a98.16,98.16,0,0,1,20.45-10.4C346.92,142.78,350.06,132.52,345.64,125.2Z"/><circle class="cls-2" cx="152.92" cy="53.05" r="20.91"/><circle class="cls-3" cx="152.27" cy="52.18" r="12.48"/><circle class="cls-4" cx="156.31" cy="52.25" r="3.39" transform="translate(8.83 125.83) rotate(-45)"/><circle class="cls-2" cx="194.73" cy="53.05" r="20.91"/><circle class="cls-3" cx="194.09" cy="52.18" r="12.48"/><circle class="cls-4" cx="190.12" cy="52.25" r="3.39" transform="translate(18.74 149.74) rotate(-45)"/><path class="cls-5" d="M42.85,40.61c-1.44-2.12-4.56-.16-3.48,2.19a72.13,72.13,0,0,1,6.21,29.91c0,29.59-16.32,53.58-36.45,53.58H9a2.17,2.17,0,0,0-.72,4.17A25.53,25.53,0,0,0,17,132c20.13,0,36.45-24,36.45-53.58C53.5,63.67,49.43,50.3,42.85,40.61Z"/><path class="cls-5" d="M308.91,38.39c2-1.82,5.46.7,3.81,2.81a61.86,61.86,0,0,0-12,28.38c-4.6,29.23,11.1,56,35.07,59.76l.15,0c2.75.42,2.93,3.88.21,4.26a36.46,36.46,0,0,1-10.69-.1c-24-3.77-39.67-30.53-35.07-59.76C292.65,59.18,299.57,46.73,308.91,38.39Z"/><path class="cls-5" d="M21.54,138.53c-2.55.22-2.37,3.9.21,4.11a72.13,72.13,0,0,1,29.14,9.18c25.83,14.45,38.8,40.4,29,58l-.06.11a2.17,2.17,0,0,0,3.29,2.67,25.53,25.53,0,0,0,5.65-6.89c9.83-17.57-3.15-43.52-29-58C46.87,140.5,33.21,137.52,21.54,138.53Z"/><path class="cls-5" d="M92.35,208.61a2,2,0,0,0,1.52,3.74,64,64,0,0,1,28.64-2.09c27.44,4,47.33,23.41,44.42,43.33l0,.12a2,2,0,0,0,3.77,1.28,27.06,27.06,0,0,0,2.72-8.47c2.91-19.92-17-39.32-44.42-43.33C115.28,201.2,102.29,203.41,92.35,208.61Z"/><path class="cls-5" d="M269.35,210.18c2.21,1.67.28,5.44-2.15,4.21a65.08,65.08,0,0,0-30.79-6.78c-30.31.63-54.48,20.63-54,44.67v.15c.07,2.75-3.39,3.54-4.26,1a35,35,0,0,1-1.82-10.45c-.5-24,23.67-44,54-44.67C245.46,197.95,259.26,202.53,269.35,210.18Z"/><path class="cls-5" d="M330.51,139.27c2.28.59,1.93,4.14-.39,4a56.73,56.73,0,0,0-26.56,4.64c-23.86,10.23-36.76,33.53-28.82,52l.05.12a1.87,1.87,0,0,1-3.08,2.11A28.74,28.74,0,0,1,267,194.6c-7.94-18.5,5-41.8,28.82-52C307.72,137.46,320.11,136.58,330.51,139.27Z"/></g></g></svg>